<svg xmlns="http://www.w3.org/2000/svg" version="1.1" xmlns:xlink="http://www.w3.org/1999/xlink" xmlns:svgjs="http://svgjs.dev/svgjs" width="1000" height="1175" viewBox="0 0 1000 1175"><g transform="matrix(1,0,0,1,0.9000000000000341,-1.6624999999997954)"><svg viewBox="0 0 120 141" data-background-color="#ffffff" preserveAspectRatio="xMidYMid meet" height="1175" width="1000" xmlns="http://www.w3.org/2000/svg" xmlns:xlink="http://www.w3.org/1999/xlink"><g id="tight-bounds" transform="matrix(1,0,0,1,-0.10800000000000409,0.19949999999997203)"><svg viewBox="0 0 120.2157390857143 140.60052000000002" height="140.60052000000002" width="120.2157390857143"><g><svg viewBox="0 0 120.2157390857143 140.60052000000002" height="140.60052000000002" width="120.2157390857143"><g><svg viewBox="0 0 120.2157390857143 140.60052000000002" height="140.60052000000002" width="120.2157390857143"><g><path d="M0 140.601v-140.601h120.216v140.601z" fill="#ed2647" stroke="transparent" stroke-width="0" rx="0%" data-fill-palette-color="tertiary"></path><path d="M3.283 137.317v-134.034h113.649v134.034z" fill="#ffffff" stroke="transparent" stroke-width="0" rx="0%" data-fill-palette-color="quaternary"></path><path d="M9.85 130.751v-120.901h100.516v120.901z" fill="#ed2647" stroke="transparent" stroke-width="0" data-fill-palette-color="tertiary"></path></g><g transform="matrix(1,0,0,1,19.69974,19.69974)" id="textblocktransform"><svg viewBox="0 0 80.81625908571431 101.20104" height="101.20104" width="80.81625908571431" id="textblock"><g><svg viewBox="0 0 80.81625908571431 101.20104" height="101.20104" width="80.81625908571431"><g transform="matrix(1,0,0,1,0,0)"><svg width="80.81625908571431" viewBox="3.9000000953674316 -35 27.950000762939453 35" height="101.20104" data-palette-color="#ffffff"><path d="M9.65 0L5.1 0Q4.6 0 4.25-0.35 3.9-0.7 3.9-1.2L3.9-1.2 3.9-33.75Q3.9-34.3 4.25-34.65 4.6-35 5.1-35L5.1-35 18.05-35Q24.1-35 27.6-32.2 31.1-29.4 31.1-24.05L31.1-24.05Q31.1-20.35 29.28-17.9 27.45-15.45 24.4-14.35L24.4-14.35 31.7-1.6Q31.85-1.3 31.85-1.05L31.85-1.05Q31.85-0.6 31.53-0.3 31.2 0 30.8 0L30.8 0 26.25 0Q25.4 0 24.95-0.45 24.5-0.9 24.25-1.35L24.25-1.35 17.8-13.2 10.85-13.2 10.85-1.2Q10.85-0.7 10.53-0.35 10.2 0 9.65 0L9.65 0ZM10.85-29.45L10.85-18.85 17.9-18.85Q20.95-18.85 22.45-20.23 23.95-21.6 23.95-24.1L23.95-24.1Q23.95-26.6 22.48-28.03 21-29.45 17.9-29.45L17.9-29.45 10.85-29.45Z" opacity="1" transform="matrix(1,0,0,1,0,0)" fill="#ffffff" class="undefined-text-0" data-fill-palette-color="quaternary" id="text-0"></path></svg></g></svg></g></svg></g></svg></g><g></g></svg></g><defs></defs></svg><rect width="120.2157390857143" height="140.60052000000002" fill="none" stroke="none" visibility="hidden"></rect></g></svg></g></svg>